<?xml version="1.0" encoding="utf-8"?>
<!-- Generator: Adobe Illustrator 25.0.0, SVG Export Plug-In . SVG Version: 6.00 Build 0)  -->
<svg version="1.1" id="Слой_1" xmlns="http://www.w3.org/2000/svg" xmlns:xlink="http://www.w3.org/1999/xlink" x="0px" y="0px"
	 viewBox="0 0 8 10" style="enable-background:new 0 0 8 10;" xml:space="preserve">
<style type="text/css">
	.st0{fill-rule:evenodd;clip-rule:evenodd;fill:#727282;}
</style>
<path class="st0" d="M6,2.7V4H2V2.7c0-1.1,0.9-2,2-2S6,1.6,6,2.7z M0.7,4h0.7V2.7C1.3,1.2,2.5,0,4,0s2.7,1.2,2.7,2.7V4h0.7
	C7.7,4,8,4.3,8,4.7v4.7C8,9.7,7.7,10,7.3,10H0.7C0.3,10,0,9.7,0,9.3V4.7C0,4.3,0.3,4,0.7,4z M4,6C3.6,6,3.3,6.3,3.3,6.7v0.7
	C3.3,7.7,3.6,8,4,8s0.7-0.3,0.7-0.7V6.7C4.7,6.3,4.4,6,4,6z"/>
</svg>
