<?xml version="1.0" encoding="utf-8"?>
<!-- Generator: Adobe Illustrator 25.0.0, SVG Export Plug-In . SVG Version: 6.00 Build 0)  -->
<svg version="1.1" id="Слой_1" xmlns="http://www.w3.org/2000/svg" xmlns:xlink="http://www.w3.org/1999/xlink" x="0px" y="0px"
	 viewBox="0 0 6 7" style="enable-background:new 0 0 6 7;" xml:space="preserve">
<style type="text/css">
	.st0{fill:#993333;}
</style>
<g>
	<path class="st0" d="M3,6C2,6,1.1,5.8,0.4,5.4C0.3,5.4,0.1,5.3,0,5.2c0,0.1,0,0.2,0,0.3C0,6.3,1.3,7,3,7s3-0.7,3-1.5
		c0-0.1,0-0.2,0-0.3C5.8,5.3,5.7,5.4,5.6,5.5C4.9,5.8,4,6,3,6z"/>
	<path class="st0" d="M1.2,2.7C1.2,2.7,1.2,2.7,1.2,2.7c0.1,0.1,0.3,0.1,0.4,0.1c0,0,0.1,0,0.1,0c0.1,0,0.3,0.1,0.5,0.1
		c0,0,0.1,0,0.1,0C2.6,3,2.8,3,3,3s0.4,0,0.6,0c0,0,0.1,0,0.1,0c0.2,0,0.3,0,0.5-0.1c0,0,0.1,0,0.1,0c0.2,0,0.3-0.1,0.4-0.1
		c0,0,0,0,0,0C5.5,2.4,6,2,6,1.5C6,0.7,4.7,0,3,0S0,0.7,0,1.5C0,2,0.5,2.4,1.2,2.7z"/>
	<path class="st0" d="M3,4C2,4,1.1,3.8,0.4,3.4C0.3,3.4,0.1,3.3,0,3.2c0,0.1,0,0.2,0,0.3C0,4,0.5,4.4,1.2,4.7c0,0,0,0,0,0
		c0.1,0,0.3,0.1,0.4,0.1c0,0,0.1,0,0.1,0c0.1,0,0.3,0.1,0.5,0.1c0,0,0.1,0,0.1,0C2.6,5,2.8,5,3,5s0.4,0,0.6,0c0,0,0.1,0,0.1,0
		c0.2,0,0.3,0,0.5-0.1c0,0,0.1,0,0.1,0c0.2,0,0.3-0.1,0.4-0.1c0,0,0,0,0,0C5.5,4.4,6,4,6,3.5c0-0.1,0-0.2,0-0.3
		C5.8,3.3,5.7,3.4,5.6,3.5C4.9,3.8,4,4,3,4z"/>
</g>
</svg>
